<svg width="60" height="18" xmlns="http://www.w3.org/2000/svg"><g fill="#EA5B31" fill-rule="evenodd"><path d="M12.892 7.92L9.48 9.89a1.003 1.003 0 1 1-1.003-1.737l2.391-1.38a2.942 2.942 0 0 0-3.359-.295 2.941 2.941 0 0 0-1.075 4.013 2.94 2.94 0 0 0 4.013 1.075 1.003 1.003 0 0 1 1.003 1.737 4.95 4.95 0 0 1-6.753-1.81 4.949 4.949 0 0 1 1.81-6.753 4.949 4.949 0 0 1 6.752 1.81c.277.48.113 1.093-.367 1.37m3.86-3.387A8.977 8.977 0 1 0 1.204 13.51a8.977 8.977 0 0 0 15.548-8.977M23.784 2.795a1.579 1.579 0 0 1-.472-1.16c0-.458.157-.845.472-1.161.315-.316.7-.474 1.157-.474.457 0 .843.158 1.158.474.315.316.472.703.472 1.16 0 .459-.157.846-.472 1.161a1.572 1.572 0 0 1-1.158.474 1.57 1.57 0 0 1-1.157-.474m-.231 11.452V5.442c0-.77.621-1.393 1.389-1.393.767 0 1.389.624 1.389 1.393v9.028c0 1.09-.33 1.95-.991 2.582-.661.632-1.47.948-2.427.948a3.564 3.564 0 0 1-1.754-.473 1.166 1.166 0 0 1-.412-1.63l.072-.116c.302-.487.897-.637 1.439-.454.143.048.29.072.442.072.247 0 .451-.096.612-.288.16-.192.24-.48.24-.864M31.015 9.438c0 .816.226 1.48.678 1.992.452.513 1.03.77 1.735.77.705 0 1.283-.257 1.736-.77.452-.513.678-1.176.678-1.992 0-.816-.226-1.482-.678-2.001-.453-.52-1.03-.779-1.736-.779-.704 0-1.283.26-1.735.779-.452.519-.678 1.185-.678 2m7.556 0c0 1.446-.488 2.663-1.464 3.652-.976.988-2.203 1.482-3.679 1.482s-2.702-.494-3.679-1.482c-.975-.989-1.463-2.206-1.463-3.651 0-1.446.488-2.665 1.463-3.66.977-.994 2.203-1.492 3.68-1.492 1.475 0 2.702.498 3.678 1.491.976.996 1.464 2.215 1.464 3.66M43.08 8.956c0 .807.221 1.465.666 1.975.445.511.984.766 1.618.766.634 0 1.189-.255 1.664-.766.475-.51.713-1.165.713-1.966 0-.799-.232-1.47-.695-2.011-.463-.542-1.018-.813-1.663-.813-.647 0-1.192.268-1.637.803-.445.536-.667 1.206-.667 2.012m2.962-5.14c1.194 0 2.236.47 3.126 1.412.89.941 1.334 2.15 1.334 3.627 0 1.476-.457 2.713-1.37 3.71-.915.996-1.954 1.494-3.118 1.494s-2.13-.485-2.897-1.457v.538c0 .724-.582 1.31-1.298 1.31h-.147a1.304 1.304 0 0 1-1.298-1.31V1.425c0-.765.614-1.384 1.371-1.384.758 0 1.372.62 1.372 1.384v3.664c.755-.848 1.73-1.273 2.925-1.273M60 11.319c0 .982-.354 1.77-1.06 2.363-.707.593-1.604.89-2.692.89-.725 0-1.48-.133-2.265-.398a6.782 6.782 0 0 1-1.152-.513 1.089 1.089 0 0 1-.355-1.558c.314-.458.91-.574 1.389-.303.776.44 1.589.659 2.438.659.35 0 .628-.071.834-.213a.658.658 0 0 0 .307-.565c0-.235-.141-.451-.426-.649-.283-.198-.694-.383-1.231-.557-.538-.172-.95-.32-1.233-.444a6.823 6.823 0 0 1-.97-.537c-.737-.47-1.105-1.165-1.105-2.085 0-.92.363-1.672 1.087-2.252.725-.58 1.661-.871 2.81-.871.85 0 1.7.217 2.55.65.507.26.685.914.409 1.42l-.03.052c-.27.495-.852.654-1.346.423a3.94 3.94 0 0 0-1.684-.395c-.84 0-1.26.234-1.26.704 0 .259.134.463.4.611.265.149.707.322 1.323.52.616.197 1.054.348 1.314.453.26.106.57.27.933.492.676.42 1.015 1.12 1.015 2.103"/></g></svg>